<svg version="1.0" preserveAspectRatio="xMidYMid meet" viewBox="0 457.9205360426619 1443.2395950506186 314.279997284" zoomAndPan="magnify" xmlns:xlink="http://www.w3.org/1999/xlink" xmlns="http://www.w3.org/2000/svg" style="max-height: 500px" width="1443.2395950506186" height="314.279997284"><defs><filter id="df57697284" height="100%" width="100%" y="0%" x="0%"><feColorMatrix color-interpolation-filters="sRGB" values="0 0 0 0 1 0 0 0 0 1 0 0 0 0 1 0 0 0 1 0"/></filter><clipPath id="c122129b1c"><path clip-rule="nonzero" d="M 0 460.800781 L 1440 460.800781 L 1440 772.050781 L 0 772.050781 Z M 0 460.800781"/></clipPath><mask id="bfa7d5b05c"><g filter="url(#df57697284)"><rect fill-opacity="0.3" height="971.999992" y="-80.999999" fill="#000000" width="1728" x="-144"/></g></mask><clipPath id="cbbabc0f81"><path clip-rule="nonzero" d="M 2 1 L 1370 1 L 1370 265.800781 L 2 265.800781 Z M 2 1"/></clipPath><clipPath id="6d2b7cda1c"><rect height="266" y="0" width="1371" x="0"/></clipPath></defs><g clip-path="url(#c122129b1c)"><path fill-rule="nonzero" fill-opacity="1" d="M 0.585938 460.800781 L 1439.414062 460.800781 L 1439.414062 772.355469 L 0.585938 772.355469 Z M 0.585938 460.800781" fill="#00db4e"/><path fill-rule="nonzero" fill-opacity="1" d="M 1415.625 460.800781 L 0.585938 460.800781 L 0.585938 772.355469 L 1439.03125 772.355469 L 1439.03125 460.800781 Z M 1415.625 748.566406 L 24.757812 748.566406 L 24.757812 484.972656 L 1415.625 484.972656 Z M 1415.625 748.566406" fill="#097738"/></g><path fill-rule="nonzero" fill-opacity="1" d="M 1391.453125 484.589844 L 24.375 484.589844 L 24.375 748.566406 L 48.546875 748.566406 L 48.546875 508.761719 L 1391.453125 508.761719 Z M 1391.453125 484.589844" fill="#007d2a"/><g mask="url(#bfa7d5b05c)"><g transform="matrix(1, 0, 0, 1, 46, 483)"><g clip-path="url(#6d2b7cda1c)"><g clip-path="url(#cbbabc0f81)"><path fill-rule="nonzero" fill-opacity="1" d="M 2.546875 265.566406 L 1369.625 265.566406 L 1369.625 1.589844 L 1345.453125 1.589844 L 1345.453125 241.777344 L 2.546875 241.777344 Z M 2.546875 265.566406" fill="#097738"/></g></g></g></g></svg>