<svg width="1149" height="469" viewBox="0 0 1149 469" fill="none" xmlns="http://www.w3.org/2000/svg">
<rect x="309.348" y="374.939" width="44.1922" height="46.8674" fill="#3D3B52" fill-opacity="0.44"/>
<rect x="353.537" y="374.939" width="44.1922" height="46.8674" fill="#3D3B52" fill-opacity="0.44"/>
<rect x="397.727" y="374.939" width="44.1922" height="46.8674" fill="#3D3B52" fill-opacity="0.44"/>
<rect x="441.923" y="374.939" width="44.1922" height="46.8674" fill="#3D3B52" fill-opacity="0.44"/>
<rect x="486.113" y="374.939" width="44.1922" height="46.8674" fill="#3D3B52" fill-opacity="0.44"/>
<rect x="530.309" y="374.939" width="44.1922" height="46.8674" fill="#3D3B52" fill-opacity="0.44"/>
<rect x="574.499" y="374.939" width="44.1922" height="46.8674" fill="#3D3B52" fill-opacity="0.44"/>
<rect x="618.688" y="374.939" width="44.1922" height="46.8674" fill="#3D3B52" fill-opacity="0.44"/>
<rect x="662.885" y="374.939" width="44.1922" height="46.8674" fill="#3D3B52" fill-opacity="0.44"/>
<rect x="707.074" y="374.939" width="44.1922" height="46.8674" fill="#3D3B52" fill-opacity="0.44"/>
<rect x="751.268" y="374.939" width="44.1922" height="46.8674" fill="#3D3B52" fill-opacity="0.44"/>
<rect x="795.46" y="374.939" width="44.1922" height="46.8674" fill="#3D3B52" fill-opacity="0.44"/>
<rect x="839.65" y="374.939" width="44.1922" height="46.8674" fill="#3D3B52" fill-opacity="0.44"/>
<rect x="883.843" y="374.939" width="44.1922" height="46.8674" fill="#3D3B52" fill-opacity="0.44"/>
<rect x="928.036" y="374.939" width="44.1922" height="46.8674" fill="#3D3B52" fill-opacity="0.44"/>
<rect x="972.226" y="374.939" width="44.1922" height="46.8674" fill="#3D3B52" fill-opacity="0.44"/>
<rect x="1016.42" y="374.939" width="44.1922" height="46.8674" fill="#3D3B52" fill-opacity="0.44"/>
<rect x="1060.61" y="328.071" width="44.1922" height="46.8674" fill="#3D3B52" fill-opacity="0.44"/>
<rect x="1104.81" y="281.204" width="44.1922" height="46.8674" fill="#3D3B52" fill-opacity="0.44"/>
<rect x="1104.81" y="234.337" width="44.1922" height="46.8674" fill="#3D3B52" fill-opacity="0.44"/>
<rect x="1104.81" y="187.47" width="44.1922" height="46.8674" fill="#3D3B52" fill-opacity="0.44"/>
<rect x="1104.81" y="140.602" width="44.1922" height="46.8674" fill="#3D3B52" fill-opacity="0.44"/>
<rect x="1104.81" y="93.7351" width="44.1922" height="46.8674" fill="#3D3B52" fill-opacity="0.44"/>
<rect x="1060.61" y="46.8676" width="44.1922" height="46.8674" fill="#3D3B52" fill-opacity="0.44"/>
<rect x="44.1895" y="93.7351" width="44.1922" height="46.8674" fill="#3D3B52" fill-opacity="0.44"/>
<path d="M44.1895 140.602H88.3817V187.47H44.1895V140.602Z" fill="#3D3B52" fill-opacity="0.44"/>
<path d="M44.1895 187.47H88.3817V234.337H44.1895V187.47Z" fill="#3D3B52" fill-opacity="0.44"/>
<path d="M44.1895 234.337H88.3817V281.204H44.1895V234.337Z" fill="#3D3B52" fill-opacity="0.44"/>
<path d="M44.1895 281.204H88.3817V328.072H44.1895V281.204Z" fill="#3D3B52" fill-opacity="0.44"/>
<rect x="88.3857" y="46.8676" width="44.1922" height="46.8674" fill="#3D3B52" fill-opacity="0.44"/>
<path d="M132.575 0H176.767V46.8674H132.575V0Z" fill="#3D3B52" fill-opacity="0.44"/>
<rect x="176.769" width="44.1922" height="46.8674" fill="#3D3B52" fill-opacity="0.44"/>
<rect x="176.769" y="374.939" width="44.1922" height="46.8674" fill="#3D3B52" fill-opacity="0.44"/>
<rect x="220.962" y="374.939" width="44.1922" height="46.8674" fill="#3D3B52" fill-opacity="0.44"/>
<rect x="132.575" y="374.939" width="44.1922" height="46.8674" fill="#3D3B52" fill-opacity="0.44"/>
<rect x="88.3857" y="328.071" width="44.1922" height="46.8674" fill="#3D3B52" fill-opacity="0.44"/>
<rect x="265.154" y="374.939" width="44.1922" height="46.8674" fill="#3D3B52" fill-opacity="0.44"/>
<rect x="309.348" width="44.1922" height="46.8674" fill="#3D3B52" fill-opacity="0.44"/>
<rect x="353.537" width="44.1922" height="46.8674" fill="#3D3B52" fill-opacity="0.44"/>
<rect x="397.727" width="44.1922" height="46.8674" fill="#3D3B52" fill-opacity="0.44"/>
<rect x="441.923" width="44.1922" height="46.8674" fill="#3D3B52" fill-opacity="0.44"/>
<rect x="486.113" width="44.1922" height="46.8674" fill="#3D3B52" fill-opacity="0.44"/>
<rect x="530.309" width="44.1922" height="46.8674" fill="#3D3B52" fill-opacity="0.44"/>
<rect x="574.499" width="44.1922" height="46.8674" fill="#3D3B52" fill-opacity="0.44"/>
<rect x="618.688" width="44.1922" height="46.8674" fill="#3D3B52" fill-opacity="0.44"/>
<rect x="662.885" width="44.1922" height="46.8674" fill="#3D3B52" fill-opacity="0.44"/>
<rect x="707.074" width="44.1922" height="46.8674" fill="#3D3B52" fill-opacity="0.44"/>
<rect x="751.268" width="44.1922" height="46.8674" fill="#3D3B52" fill-opacity="0.44"/>
<rect x="795.46" width="44.1922" height="46.8674" fill="#3D3B52" fill-opacity="0.44"/>
<rect x="839.65" width="44.1922" height="46.8674" fill="#3D3B52" fill-opacity="0.44"/>
<rect x="883.843" width="44.1922" height="46.8674" fill="#3D3B52" fill-opacity="0.44"/>
<rect x="928.036" width="44.1922" height="46.8674" fill="#3D3B52" fill-opacity="0.44"/>
<rect x="972.226" width="44.1922" height="46.8674" fill="#3D3B52" fill-opacity="0.44"/>
<rect x="1016.42" width="44.1922" height="46.8674" fill="#3D3B52" fill-opacity="0.44"/>
<rect x="265.154" width="44.1922" height="46.8674" fill="#3D3B52" fill-opacity="0.44"/>
<rect x="220.962" width="44.1922" height="46.8674" fill="#3D3B52" fill-opacity="0.44"/>
<rect x="220.962" y="140.602" width="44.1922" height="46.8674" fill="white"/>
<rect x="265.154" y="140.602" width="44.1922" height="46.8674" fill="white"/>
<rect x="265.154" y="93.7351" width="44.1922" height="46.8674" fill="white"/>
<rect x="220.962" y="93.7351" width="44.1922" height="46.8674" fill="white"/>
<rect x="574.499" y="140.602" width="44.1922" height="46.8674" fill="white"/>
<rect x="574.499" y="187.47" width="44.1922" height="46.8674" fill="white"/>
<rect x="574.499" y="281.204" width="44.1922" height="46.8674" fill="white"/>
<rect x="132.575" y="46.8676" width="44.1922" height="46.8674" fill="white"/>
<rect x="132.575" y="328.071" width="44.1922" height="46.8674" fill="white"/>
<rect x="132.575" y="281.204" width="44.1922" height="46.8674" fill="white"/>
<rect x="132.575" y="234.337" width="44.1922" height="46.8674" fill="white"/>
<rect x="176.769" y="234.337" width="44.1922" height="46.8674" fill="white"/>
<rect x="132.575" y="187.47" width="44.1922" height="46.8674" fill="white"/>
<rect x="132.575" y="140.602" width="44.1922" height="46.8674" fill="white"/>
<rect x="132.575" y="93.7351" width="44.1922" height="46.8674" fill="white"/>
<rect x="88.3857" y="281.204" width="44.1922" height="46.8674" fill="white"/>
<rect x="88.3857" y="234.337" width="44.1922" height="46.8674" fill="white"/>
<rect x="88.3857" y="187.47" width="44.1922" height="46.8674" fill="white"/>
<rect x="88.3857" y="140.602" width="44.1922" height="46.8674" fill="white"/>
<rect x="176.769" y="93.7351" width="44.1922" height="46.8674" fill="white"/>
<rect x="176.769" y="140.602" width="44.1922" height="46.8674" fill="white"/>
<rect x="176.769" y="187.47" width="44.1922" height="46.8674" fill="white"/>
<rect x="220.962" y="187.47" width="44.1922" height="46.8674" fill="white"/>
<rect x="265.154" y="187.47" width="44.1922" height="46.8674" fill="white"/>
<rect x="265.154" y="234.337" width="44.1922" height="46.8674" fill="white"/>
<rect x="265.154" y="281.204" width="44.1922" height="46.8674" fill="white"/>
<rect x="220.962" y="281.204" width="44.1922" height="46.8674" fill="white"/>
<rect x="176.769" y="281.204" width="44.1922" height="46.8674" fill="white"/>
<rect x="88.3857" y="93.7351" width="44.1922" height="46.8674" fill="white"/>
<rect x="1016.42" y="281.204" width="44.1922" height="46.8674" fill="white"/>
<rect x="1016.42" y="234.337" width="44.1922" height="46.8674" fill="white"/>
<rect x="1016.42" y="187.47" width="44.1922" height="46.8674" fill="white"/>
<rect x="1016.42" y="140.602" width="44.1922" height="46.8674" fill="white"/>
<rect x="972.226" y="281.204" width="44.1922" height="46.8674" fill="white"/>
<rect x="972.226" y="234.337" width="44.1922" height="46.8674" fill="white"/>
<rect x="928.036" y="187.47" width="44.1922" height="46.8674" fill="white"/>
<rect x="928.036" y="234.337" width="44.1922" height="46.8674" fill="white"/>
<rect x="972.226" y="187.47" width="44.1922" height="46.8674" fill="white"/>
<rect x="972.226" y="93.7351" width="44.1922" height="46.8674" fill="white"/>
<rect x="972.226" y="140.602" width="44.1922" height="46.8674" fill="white"/>
<rect x="883.843" y="281.204" width="44.1922" height="46.8674" fill="white"/>
<rect x="883.843" y="234.337" width="44.1922" height="46.8674" fill="white"/>
<rect x="928.036" y="281.204" width="44.1922" height="46.8674" fill="white"/>
<rect x="883.843" y="187.47" width="44.1922" height="46.8674" fill="white"/>
<rect x="883.843" y="140.602" width="44.1922" height="46.8674" fill="white"/>
<rect x="928.036" y="93.7351" width="44.1922" height="46.8674" fill="white"/>
<rect x="928.036" y="140.602" width="44.1922" height="46.8674" fill="white"/>
<rect x="441.923" y="281.204" width="44.1922" height="46.8674" fill="white"/>
<rect x="397.727" y="281.204" width="44.1922" height="46.8674" fill="white"/>
<rect x="441.923" y="234.337" width="44.1922" height="46.8674" fill="white"/>
<rect x="397.727" y="234.337" width="44.1922" height="46.8674" fill="white"/>
<rect x="441.923" y="187.47" width="44.1922" height="46.8674" fill="white"/>
<rect x="397.727" y="187.47" width="44.1922" height="46.8674" fill="white"/>
<rect x="441.923" y="140.602" width="44.1922" height="46.8674" fill="white"/>
<rect x="397.727" y="140.602" width="44.1922" height="46.8674" fill="white"/>
<rect x="441.923" y="93.7351" width="44.1922" height="46.8674" fill="white"/>
<rect x="353.537" y="281.204" width="44.1922" height="46.8674" fill="white"/>
<rect x="353.537" y="234.337" width="44.1922" height="46.8674" fill="white"/>
<rect x="353.537" y="187.47" width="44.1922" height="46.8674" fill="white"/>
<rect x="353.537" y="140.602" width="44.1922" height="46.8674" fill="white"/>
<rect x="397.727" y="93.7351" width="44.1922" height="46.8674" fill="white"/>
<rect x="353.537" y="93.7351" width="44.1922" height="46.8674" fill="white"/>
<rect x="1016.42" y="93.7351" width="44.1922" height="46.8674" fill="white"/>
<rect x="309.348" y="281.204" width="44.1922" height="46.8674" fill="white"/>
<rect x="309.348" y="234.337" width="44.1922" height="46.8674" fill="white"/>
<rect x="309.348" y="187.47" width="44.1922" height="46.8674" fill="white"/>
<rect x="309.348" y="140.602" width="44.1922" height="46.8674" fill="white"/>
<rect x="309.348" y="93.7351" width="44.1922" height="46.8674" fill="white"/>
<rect x="486.113" y="281.204" width="44.1922" height="46.8674" fill="white"/>
<rect x="530.309" y="281.204" width="44.1922" height="46.8674" fill="white"/>
<rect x="486.113" y="234.337" width="44.1922" height="46.8674" fill="white"/>
<rect x="530.309" y="234.337" width="44.1922" height="46.8674" fill="white"/>
<rect x="486.113" y="187.47" width="44.1922" height="46.8674" fill="white"/>
<rect x="530.309" y="187.47" width="44.1922" height="46.8674" fill="white"/>
<rect x="486.113" y="140.602" width="44.1922" height="46.8674" fill="white"/>
<rect x="530.309" y="140.602" width="44.1922" height="46.8674" fill="white"/>
<rect x="486.113" y="93.7351" width="44.1922" height="46.8674" fill="white"/>
<rect x="574.499" y="93.7351" width="44.1922" height="46.8674" fill="white"/>
<rect x="618.688" y="93.7351" width="44.1922" height="46.8674" fill="white"/>
<rect x="618.688" y="140.602" width="44.1922" height="46.8674" fill="white"/>
<rect x="618.688" y="187.47" width="44.1922" height="46.8674" fill="white"/>
<rect x="618.688" y="234.337" width="44.1922" height="46.8674" fill="white"/>
<rect x="795.46" y="281.204" width="44.1922" height="46.8674" fill="white"/>
<rect x="618.688" y="281.204" width="44.1922" height="46.8674" fill="white"/>
<rect x="574.499" y="234.337" width="44.1922" height="46.8674" fill="white"/>
<rect x="530.309" y="93.7351" width="44.1922" height="46.8674" fill="white"/>
<rect x="662.885" y="281.204" width="44.1922" height="46.8674" fill="white"/>
<rect x="662.885" y="234.337" width="44.1922" height="46.8674" fill="white"/>
<rect x="662.885" y="187.47" width="44.1922" height="46.8674" fill="white"/>
<rect x="662.885" y="140.602" width="44.1922" height="46.8674" fill="white"/>
<rect x="707.074" y="140.602" width="44.1922" height="46.8674" fill="white"/>
<rect x="707.074" y="187.47" width="44.1922" height="46.8674" fill="white"/>
<rect x="707.074" y="234.337" width="44.1922" height="46.8674" fill="white"/>
<rect x="707.074" y="281.204" width="44.1922" height="46.8674" fill="white"/>
<rect x="707.074" y="93.7351" width="44.1922" height="46.8674" fill="white"/>
<rect x="751.268" y="93.7351" width="44.1922" height="46.8674" fill="white"/>
<rect x="795.46" y="93.7351" width="44.1922" height="46.8674" fill="white"/>
<rect x="795.46" y="140.602" width="44.1922" height="46.8674" fill="white"/>
<rect x="795.46" y="234.337" width="44.1922" height="46.8674" fill="white"/>
<rect x="883.843" y="93.7351" width="44.1922" height="46.8674" fill="white"/>
<rect x="751.268" y="187.47" width="44.1922" height="46.8674" fill="white"/>
<rect x="662.885" y="93.7351" width="44.1922" height="46.8674" fill="white"/>
<rect x="751.268" y="140.602" width="44.1922" height="46.8674" fill="white"/>
<rect x="751.268" y="234.337" width="44.1922" height="46.8674" fill="white"/>
<rect x="751.268" y="281.204" width="44.1922" height="46.8674" fill="white"/>
<rect x="839.65" y="281.204" width="44.1922" height="46.8674" fill="white"/>
<rect x="795.46" y="187.47" width="44.1922" height="46.8674" fill="white"/>
<rect x="839.65" y="187.47" width="44.1922" height="46.8674" fill="white"/>
<rect x="839.65" y="234.337" width="44.1922" height="46.8674" fill="white"/>
<rect x="839.65" y="140.602" width="44.1922" height="46.8674" fill="white"/>
<rect x="839.65" y="93.7351" width="44.1922" height="46.8674" fill="white"/>
<rect x="1060.61" y="281.204" width="44.1922" height="46.8674" fill="white"/>
<rect x="1060.61" y="234.337" width="44.1922" height="46.8674" fill="white"/>
<rect x="1060.61" y="187.47" width="44.1922" height="46.8674" fill="white"/>
<rect x="1060.61" y="140.602" width="44.1922" height="46.8674" fill="white"/>
<rect x="1060.61" y="93.7351" width="44.1922" height="46.8674" fill="white"/>
<rect x="220.962" y="234.337" width="44.1922" height="46.8674" fill="white"/>
<rect x="176.769" y="46.8676" width="44.1922" height="46.8674" fill="white"/>
<rect x="220.962" y="46.8676" width="44.1922" height="46.8674" fill="white"/>
<rect x="265.154" y="46.8676" width="44.1922" height="46.8674" fill="white"/>
<rect x="309.348" y="46.8676" width="44.1922" height="46.8674" fill="white"/>
<rect x="353.537" y="46.8676" width="44.1922" height="46.8674" fill="white"/>
<rect x="397.727" y="46.8676" width="44.1922" height="46.8674" fill="white"/>
<rect x="441.923" y="46.8676" width="44.1922" height="46.8674" fill="white"/>
<rect x="486.113" y="46.8676" width="44.1922" height="46.8674" fill="white"/>
<rect x="530.309" y="46.8676" width="44.1922" height="46.8674" fill="white"/>
<rect x="574.499" y="46.8676" width="44.1922" height="46.8674" fill="white"/>
<rect x="618.688" y="46.8676" width="44.1922" height="46.8674" fill="white"/>
<rect x="618.688" y="46.8676" width="44.1922" height="46.8674" fill="white"/>
<rect x="662.885" y="46.8676" width="44.1922" height="46.8674" fill="white"/>
<rect x="707.074" y="46.8676" width="44.1922" height="46.8674" fill="white"/>
<rect x="751.268" y="46.8676" width="44.1922" height="46.8674" fill="white"/>
<rect x="795.46" y="46.8676" width="44.1922" height="46.8674" fill="white"/>
<rect x="839.65" y="46.8676" width="44.1922" height="46.8674" fill="white"/>
<rect x="883.843" y="46.8676" width="44.1922" height="46.8674" fill="white"/>
<rect x="928.036" y="46.8676" width="44.1922" height="46.8674" fill="white"/>
<rect x="972.226" y="46.8676" width="44.1922" height="46.8674" fill="white"/>
<rect x="1016.42" y="46.8676" width="44.1922" height="46.8674" fill="white"/>
<rect x="176.769" y="328.071" width="44.1922" height="46.8674" fill="white"/>
<rect x="220.962" y="328.071" width="44.1922" height="46.8674" fill="white"/>
<rect x="265.154" y="328.071" width="44.1922" height="46.8674" fill="white"/>
<rect x="309.348" y="328.071" width="44.1922" height="46.8674" fill="white"/>
<rect x="353.537" y="328.071" width="44.1922" height="46.8674" fill="white"/>
<rect x="397.727" y="328.071" width="44.1922" height="46.8674" fill="white"/>
<rect x="441.923" y="328.071" width="44.1922" height="46.8674" fill="white"/>
<rect x="486.113" y="328.071" width="44.1922" height="46.8674" fill="white"/>
<rect x="530.309" y="328.071" width="44.1922" height="46.8674" fill="white"/>
<rect x="574.499" y="328.071" width="44.1922" height="46.8674" fill="white"/>
<rect x="618.688" y="328.071" width="44.1922" height="46.8674" fill="white"/>
<rect x="618.688" y="328.071" width="44.1922" height="46.8674" fill="white"/>
<rect x="662.885" y="328.071" width="44.1922" height="46.8674" fill="white"/>
<rect x="707.074" y="328.071" width="44.1922" height="46.8674" fill="white"/>
<rect x="751.268" y="328.071" width="44.1922" height="46.8674" fill="white"/>
<rect x="795.46" y="328.071" width="44.1922" height="46.8674" fill="white"/>
<rect x="839.65" y="328.071" width="44.1922" height="46.8674" fill="white"/>
<rect x="883.843" y="328.071" width="44.1922" height="46.8674" fill="white"/>
<rect x="928.036" y="328.071" width="44.1922" height="46.8674" fill="white"/>
<rect x="972.226" y="328.071" width="44.1922" height="46.8674" fill="white"/>
<rect x="1016.42" y="328.071" width="44.1922" height="46.8674" fill="white"/>
<rect x="44.1895" y="49.9917" width="44.1922" height="46.8674" fill="#3D3B52"/>
<rect y="96.859" width="44.1922" height="46.8674" fill="#3D3B52"/>
<rect y="143.727" width="44.1922" height="46.8674" fill="#3D3B52"/>
<rect y="190.594" width="44.1922" height="46.8674" fill="#3D3B52"/>
<rect y="237.461" width="44.1922" height="46.8674" fill="#3D3B52"/>
<rect y="281.204" width="44.1922" height="46.8674" fill="#3D3B52"/>
<rect x="44.1895" y="328.071" width="44.1922" height="46.8674" fill="#3D3B52"/>
<rect x="88.3857" y="374.939" width="44.1922" height="46.8674" fill="#3D3B52"/>
<rect x="132.575" y="421.806" width="44.1922" height="46.8674" fill="#3D3B52"/>
<rect x="88.3857" y="421.806" width="44.1922" height="46.8674" fill="#3D3B52"/>
<rect x="44.1895" y="374.939" width="44.1922" height="46.8674" fill="#3D3B52"/>
<rect y="328.072" width="44.1922" height="46.8674" fill="#3D3B52"/>
<rect x="176.769" y="421.806" width="44.1922" height="46.8674" fill="#3D3B52"/>
<rect x="220.962" y="421.806" width="44.1922" height="46.8674" fill="#3D3B52"/>
<rect x="265.154" y="421.806" width="44.1922" height="46.8674" fill="#3D3B52"/>
<rect x="309.348" y="421.806" width="44.1922" height="46.8674" fill="#3D3B52"/>
<rect x="353.537" y="421.806" width="44.1922" height="46.8674" fill="#3D3B52"/>
<rect x="397.727" y="421.806" width="44.1922" height="46.8674" fill="#3D3B52"/>
<rect x="441.923" y="421.806" width="44.1922" height="46.8674" fill="#3D3B52"/>
<rect x="486.113" y="421.806" width="44.1922" height="46.8674" fill="#3D3B52"/>
<rect x="530.309" y="421.806" width="44.1922" height="46.8674" fill="#3D3B52"/>
<rect x="574.499" y="421.806" width="44.1922" height="46.8674" fill="#3D3B52"/>
<rect x="618.688" y="421.806" width="44.1922" height="46.8674" fill="#3D3B52"/>
<rect x="662.885" y="421.806" width="44.1922" height="46.8674" fill="#3D3B52"/>
<rect x="707.074" y="421.806" width="44.1922" height="46.8674" fill="#3D3B52"/>
<rect x="751.268" y="421.806" width="44.1922" height="46.8674" fill="#3D3B52"/>
<rect x="795.46" y="421.806" width="44.1922" height="46.8674" fill="#3D3B52"/>
<rect x="839.65" y="421.806" width="44.1922" height="46.8674" fill="#3D3B52"/>
<rect x="883.843" y="421.806" width="44.1922" height="46.8674" fill="#3D3B52"/>
<rect x="928.036" y="421.806" width="44.1922" height="46.8674" fill="#3D3B52"/>
<rect x="972.226" y="421.806" width="44.1922" height="46.8674" fill="#3D3B52"/>
<rect x="1016.42" y="421.806" width="44.1922" height="46.8674" fill="#3D3B52"/>
<rect x="1060.61" y="374.939" width="44.1922" height="46.8674" fill="#3D3B52"/>
<rect x="1104.81" y="328.071" width="44.1922" height="46.8674" fill="#3D3B52"/>
<rect x="88.3857" y="3.12415" width="44.1922" height="46.8674" fill="#3D3B52"/>
</svg>
