<svg width="413" height="109" viewBox="0 0 413 109" fill="none" xmlns="http://www.w3.org/2000/svg">
<rect x="111.192" y="87.2" width="15.8846" height="10.9" fill="#74A050"/>
<rect x="127.076" y="87.2" width="15.8846" height="10.9" fill="#74A050"/>
<rect x="142.96" y="87.2" width="15.8846" height="10.9" fill="#74A050"/>
<rect x="158.846" y="87.2" width="15.8846" height="10.9" fill="#74A050"/>
<rect x="174.729" y="87.2" width="15.8846" height="10.9" fill="#74A050"/>
<rect x="190.615" y="87.2" width="15.8846" height="10.9" fill="#74A050"/>
<rect x="206.499" y="87.2" width="15.8846" height="10.9" fill="#74A050"/>
<rect x="222.383" y="87.2" width="15.8846" height="10.9" fill="#74A050"/>
<rect x="238.269" y="87.2" width="15.8846" height="10.9" fill="#74A050"/>
<rect x="254.152" y="87.2" width="15.8846" height="10.9" fill="#74A050"/>
<rect x="270.038" y="87.2" width="15.8846" height="10.9" fill="#74A050"/>
<rect x="285.922" y="87.2" width="15.8846" height="10.9" fill="#74A050"/>
<rect x="301.807" y="87.2" width="15.8846" height="10.9" fill="#74A050"/>
<rect x="317.691" y="87.2" width="15.8846" height="10.9" fill="#74A050"/>
<rect x="349.46" y="87.2" width="15.8846" height="10.9" fill="#74A050"/>
<rect x="333.575" y="87.2" width="15.8846" height="10.9" fill="#74A050"/>
<rect x="365.345" y="87.2" width="15.8846" height="10.9" fill="#74A050"/>
<rect x="381.229" y="76.3" width="15.8846" height="10.9" fill="#74A050"/>
<rect x="397.114" y="65.4" width="15.8846" height="10.9" fill="#74A050"/>
<rect x="397.114" y="54.5" width="15.8846" height="10.9" fill="#74A050"/>
<rect x="397.114" y="43.6" width="15.8846" height="10.9" fill="#74A050"/>
<rect x="397.114" y="32.7" width="15.8846" height="10.9" fill="#74A050"/>
<rect x="397.114" y="21.8" width="15.8846" height="10.9" fill="#74A050"/>
<rect x="381.229" y="10.9" width="15.8846" height="10.9" fill="#74A050"/>
<rect x="15.8838" y="21.8" width="15.8846" height="10.9" fill="#74A050"/>
<path d="M15.8838 32.7H31.7684V43.6H15.8838V32.7Z" fill="#74A050"/>
<path d="M15.8838 43.6H31.7684V54.5H15.8838V43.6Z" fill="#74A050"/>
<path d="M15.8838 54.5H31.7684V65.3999H15.8838V54.5Z" fill="#74A050"/>
<path d="M15.8838 65.3999H31.7684V76.2999H15.8838V65.3999Z" fill="#74A050"/>
<rect x="31.7695" y="10.9" width="15.8846" height="10.9" fill="#74A050"/>
<path d="M47.6533 0H63.5379V10.9H47.6533V0Z" fill="#74A050"/>
<rect x="63.5391" width="15.8846" height="10.9" fill="#74A050"/>
<rect x="63.5391" y="87.2" width="15.8846" height="10.9" fill="#74A050"/>
<rect x="79.4229" y="87.2" width="15.8846" height="10.9" fill="#74A050"/>
<rect x="47.6533" y="87.2" width="15.8846" height="10.9" fill="#74A050"/>
<rect x="31.7695" y="76.3" width="15.8846" height="10.9" fill="#74A050"/>
<rect x="95.3076" y="87.2" width="15.8846" height="10.9" fill="#74A050"/>
<rect x="111.192" width="15.8846" height="10.9" fill="#74A050"/>
<rect x="127.076" width="15.8846" height="10.9" fill="#74A050"/>
<rect x="142.96" width="15.8846" height="10.9" fill="#74A050"/>
<rect x="158.846" width="15.8846" height="10.9" fill="#74A050"/>
<rect x="174.729" width="15.8846" height="10.9" fill="#74A050"/>
<rect x="190.615" width="15.8846" height="10.9" fill="#74A050"/>
<rect x="206.499" width="15.8846" height="10.9" fill="#74A050"/>
<rect x="222.383" width="15.8846" height="10.9" fill="#74A050"/>
<rect x="238.269" width="15.8846" height="10.9" fill="#74A050"/>
<rect x="254.152" width="15.8846" height="10.9" fill="#74A050"/>
<rect x="270.038" width="15.8846" height="10.9" fill="#74A050"/>
<rect x="285.922" width="15.8846" height="10.9" fill="#74A050"/>
<rect x="301.807" width="15.8846" height="10.9" fill="#74A050"/>
<rect x="317.691" width="15.8846" height="10.9" fill="#74A050"/>
<rect x="333.575" width="15.8846" height="10.9" fill="#74A050"/>
<rect x="349.46" width="15.8846" height="10.9" fill="#74A050"/>
<rect x="365.345" width="15.8846" height="10.9" fill="#74A050"/>
<rect x="95.3076" width="15.8846" height="10.9" fill="#74A050"/>
<rect x="79.4229" width="15.8846" height="10.9" fill="#74A050"/>
<rect x="79.4229" y="21.8" width="15.8846" height="10.9" fill="#A8D67C"/>
<rect x="95.3076" y="21.8" width="15.8846" height="10.9" fill="#A8D67C"/>
<rect x="127.076" y="21.8" width="15.8846" height="10.9" fill="#A8D67C"/>
<rect x="142.96" y="21.8" width="15.8846" height="10.9" fill="#A8D67C"/>
<rect x="142.96" y="32.7" width="15.8846" height="10.9" fill="#A8D67C"/>
<rect x="142.96" y="43.6" width="15.8846" height="10.9" fill="#A8D67C"/>
<rect x="142.96" y="54.5" width="15.8846" height="10.9" fill="#A8D67C"/>
<rect x="142.96" y="65.4" width="15.8846" height="10.9" fill="#A8D67C"/>
<rect x="190.615" y="54.5" width="15.8846" height="10.9" fill="#A8D67C"/>
<rect x="190.615" y="43.6" width="15.8846" height="10.9" fill="#A8D67C"/>
<rect x="190.615" y="32.7" width="15.8846" height="10.9" fill="#A8D67C"/>
<rect x="222.383" y="21.8" width="15.8846" height="10.9" fill="#A8D67C"/>
<rect x="222.383" y="21.8" width="15.8846" height="10.9" fill="#A8D67C"/>
<rect x="206.499" y="21.8" width="15.8846" height="10.9" fill="#A8D67C"/>
<rect x="222.383" y="32.7" width="15.8846" height="10.9" fill="#A8D67C"/>
<rect x="222.383" y="43.6" width="15.8846" height="10.9" fill="#A8D67C"/>
<rect x="222.383" y="54.5" width="15.8846" height="10.9" fill="#A8D67C"/>
<rect x="222.383" y="65.4" width="15.8846" height="10.9" fill="#A8D67C"/>
<path d="M254.152 21.8H270.037V32.7H254.152V21.8Z" fill="#A8D67C"/>
<path d="M254.152 32.7H270.037V43.6H254.152V32.7Z" fill="#A8D67C"/>
<path d="M254.152 43.6H270.037V54.5H254.152V43.6Z" fill="#A8D67C"/>
<path d="M254.152 54.5H270.037V65.4H254.152V54.5Z" fill="#A8D67C"/>
<path d="M254.152 65.4H270.037V76.3H254.152V65.4Z" fill="#A8D67C"/>
<path d="M270.038 21.8H285.923V32.7H270.038V21.8Z" fill="#A8D67C"/>
<path d="M285.922 32.7H301.806V43.6H285.922V32.7Z" fill="#A8D67C"/>
<path d="M285.922 32.7H301.806V43.6H285.922V32.7Z" fill="#A8D67C"/>
<path d="M285.922 21.8H301.806V32.7H285.922V21.8Z" fill="#A8D67C"/>
<path d="M270.038 54.5H285.923V65.4H270.038V54.5Z" fill="#A8D67C"/>
<path d="M285.922 43.6H301.806V54.5H285.922V43.6Z" fill="#A8D67C"/>
<path d="M285.922 65.4H301.806V76.3H285.922V65.4Z" fill="#A8D67C"/>
<path d="M317.691 21.8H333.576V32.7H317.691V21.8Z" fill="#A8D67C"/>
<path d="M333.575 21.8H349.46V32.7H333.575V21.8Z" fill="#A8D67C"/>
<path d="M333.575 32.7H349.46V43.6H333.575V32.7Z" fill="#A8D67C"/>
<path d="M333.575 43.6H349.46V54.5H333.575V43.6Z" fill="#A8D67C"/>
<path d="M333.575 54.5H349.46V65.4H333.575V54.5Z" fill="#A8D67C"/>
<path d="M333.575 65.4H349.46V76.3H333.575V65.4Z" fill="#A8D67C"/>
<path d="M349.46 21.8H365.345V32.7H349.46V21.8Z" fill="#A8D67C"/>
<rect x="206.499" y="54.5" width="15.8846" height="10.9" fill="#A8D67C"/>
<rect x="158.846" y="21.8" width="15.8846" height="10.9" fill="#A8D67C"/>
<rect x="63.5391" y="43.6" width="15.8846" height="10.9" fill="#A8D67C"/>
<rect x="79.4229" y="43.6" width="15.8846" height="10.9" fill="#A8D67C"/>
<rect x="95.3076" y="43.6" width="15.8846" height="10.9" fill="#A8D67C"/>
<path d="M95.3076 54.5H111.192V65.4H95.3076V54.5Z" fill="#A8D67C"/>
<rect x="95.3076" y="65.4" width="15.8846" height="10.9" fill="#A8D67C"/>
<rect x="79.4229" y="65.4" width="15.8846" height="10.9" fill="#A8D67C"/>
<rect x="63.5391" y="65.4" width="15.8846" height="10.9" fill="#A8D67C"/>
<rect x="79.4229" y="32.7" width="15.8846" height="10.9" fill="#A8D67C"/>
<rect x="95.3076" y="32.7" width="15.8846" height="10.9" fill="#A8D67C"/>
<rect x="206.499" y="32.7" width="15.8846" height="10.9" fill="#A8D67C"/>
<rect x="206.499" y="43.6" width="15.8846" height="10.9" fill="#A8D67C"/>
<rect x="206.499" y="65.4" width="15.8846" height="10.9" fill="#A8D67C"/>
<rect x="47.6533" y="10.9" width="15.8846" height="10.9" fill="#A8D67C"/>
<rect x="47.6533" y="76.3" width="15.8846" height="10.9" fill="#A8D67C"/>
<rect x="47.6533" y="65.4" width="15.8846" height="10.9" fill="#A8D67C"/>
<rect x="47.6533" y="54.5" width="15.8846" height="10.9" fill="#A8D67C"/>
<rect x="63.5391" y="54.5" width="15.8846" height="10.9" fill="#A8D67C"/>
<rect x="47.6533" y="43.6" width="15.8846" height="10.9" fill="#A8D67C"/>
<rect x="47.6533" y="32.7" width="15.8846" height="10.9" fill="#A8D67C"/>
<rect x="47.6533" y="21.8" width="15.8846" height="10.9" fill="#A8D67C"/>
<rect x="63.5391" y="21.8" width="15.8846" height="10.9" fill="#A8D67C"/>
<rect x="79.4229" y="21.8" width="15.8846" height="10.9" fill="#A8D67C"/>
<rect x="95.3076" y="21.8" width="15.8846" height="10.9" fill="#A8D67C"/>
<rect x="127.076" y="21.8" width="15.8846" height="10.9" fill="#A8D67C"/>
<rect x="158.846" y="21.8" width="15.8846" height="10.9" fill="#A8D67C"/>
<rect x="142.96" y="21.8" width="15.8846" height="10.9" fill="#A8D67C"/>
<rect x="142.96" y="32.7" width="15.8846" height="10.9" fill="#A8D67C"/>
<rect x="142.96" y="43.6" width="15.8846" height="10.9" fill="#A8D67C"/>
<rect x="142.96" y="54.5" width="15.8846" height="10.9" fill="#A8D67C"/>
<rect x="142.96" y="65.4" width="15.8846" height="10.9" fill="#A8D67C"/>
<rect x="63.5391" y="65.4" width="15.8846" height="10.9" fill="#A8D67C"/>
<rect x="79.4229" y="65.4" width="15.8846" height="10.9" fill="#A8D67C"/>
<rect x="95.3076" y="65.4" width="15.8846" height="10.9" fill="#A8D67C"/>
<rect x="95.3076" y="54.5" width="15.8846" height="10.9" fill="#A8D67C"/>
<rect x="95.3076" y="43.6" width="15.8846" height="10.9" fill="#A8D67C"/>
<rect x="79.4229" y="43.6" width="15.8846" height="10.9" fill="#A8D67C"/>
<rect x="63.5391" y="43.6" width="15.8846" height="10.9" fill="#A8D67C"/>
<rect x="63.5391" y="32.7" width="15.8846" height="10.9" fill="#A8D67C"/>
<rect x="31.7695" y="65.4" width="15.8846" height="10.9" fill="#A8D67C"/>
<rect x="31.7695" y="54.5" width="15.8846" height="10.9" fill="#A8D67C"/>
<rect x="31.7695" y="43.6" width="15.8846" height="10.9" fill="#A8D67C"/>
<rect x="31.7695" y="32.7" width="15.8846" height="10.9" fill="#A8D67C"/>
<rect x="31.7695" y="21.8" width="15.8846" height="10.9" fill="#A8D67C"/>
<rect x="365.345" y="65.4" width="15.8846" height="10.9" fill="#A8D67C"/>
<rect x="365.345" y="54.5" width="15.8846" height="10.9" fill="#A8D67C"/>
<rect x="365.345" y="43.6" width="15.8846" height="10.9" fill="#A8D67C"/>
<rect x="365.345" y="32.7" width="15.8846" height="10.9" fill="#A8D67C"/>
<rect x="349.46" y="65.4" width="15.8846" height="10.9" fill="#A8D67C"/>
<rect x="333.575" y="76.3" width="15.8846" height="10.9" fill="#A8D67C"/>
<rect x="349.46" y="54.5" width="15.8846" height="10.9" fill="#A8D67C"/>
<rect x="349.46" y="43.6" width="15.8846" height="10.9" fill="#A8D67C"/>
<rect x="349.46" y="32.7" width="15.8846" height="10.9" fill="#A8D67C"/>
<rect x="317.691" y="65.4" width="15.8846" height="10.9" fill="#A8D67C"/>
<rect x="317.691" y="54.5" width="15.8846" height="10.9" fill="#A8D67C"/>
<rect x="317.691" y="43.6" width="15.8846" height="10.9" fill="#A8D67C"/>
<rect x="317.691" y="32.7" width="15.8846" height="10.9" fill="#A8D67C"/>
<rect x="158.846" y="65.4" width="15.8846" height="10.9" fill="#A8D67C"/>
<rect x="158.846" y="54.5" width="15.8846" height="10.9" fill="#A8D67C"/>
<rect x="158.846" y="43.6" width="15.8846" height="10.9" fill="#A8D67C"/>
<rect x="158.846" y="32.7" width="15.8846" height="10.9" fill="#A8D67C"/>
<rect x="127.076" y="65.4" width="15.8846" height="10.9" fill="#A8D67C"/>
<rect x="127.076" y="54.5" width="15.8846" height="10.9" fill="#A8D67C"/>
<rect x="127.076" y="43.6" width="15.8846" height="10.9" fill="#A8D67C"/>
<rect x="127.076" y="32.7" width="15.8846" height="10.9" fill="#A8D67C"/>
<rect x="365.345" y="21.8" width="15.8846" height="10.9" fill="#A8D67C"/>
<rect x="111.192" y="65.4" width="15.8846" height="10.9" fill="#A8D67C"/>
<rect x="111.192" y="54.5" width="15.8846" height="10.9" fill="#A8D67C"/>
<rect x="111.192" y="43.6" width="15.8846" height="10.9" fill="#A8D67C"/>
<rect x="111.192" y="32.7" width="15.8846" height="10.9" fill="#A8D67C"/>
<rect x="111.192" y="21.8" width="15.8846" height="10.9" fill="#A8D67C"/>
<rect x="174.729" y="65.4" width="15.8846" height="10.9" fill="#A8D67C"/>
<rect x="174.729" y="54.5" width="15.8846" height="10.9" fill="#A8D67C"/>
<rect x="174.729" y="43.6" width="15.8846" height="10.9" fill="#A8D67C"/>
<rect x="174.729" y="32.7" width="15.8846" height="10.9" fill="#A8D67C"/>
<rect x="174.729" y="21.8" width="15.8846" height="10.9" fill="#A8D67C"/>
<rect x="238.269" y="65.4" width="15.8846" height="10.9" fill="#A8D67C"/>
<rect x="238.269" y="54.5" width="15.8846" height="10.9" fill="#A8D67C"/>
<rect x="238.269" y="43.6" width="15.8846" height="10.9" fill="#A8D67C"/>
<rect x="238.269" y="32.7" width="15.8846" height="10.9" fill="#A8D67C"/>
<rect x="238.269" y="21.8" width="15.8846" height="10.9" fill="#A8D67C"/>
<rect x="270.038" y="32.7" width="15.8846" height="10.9" fill="#A8D67C"/>
<rect x="270.038" y="43.6" width="15.8846" height="10.9" fill="#A8D67C"/>
<rect x="270.038" y="65.4" width="15.8846" height="10.9" fill="#A8D67C"/>
<rect x="301.807" y="65.4" width="15.8846" height="10.9" fill="#A8D67C"/>
<rect x="285.922" y="54.5" width="15.8846" height="10.9" fill="#A8D67C"/>
<rect x="301.807" y="43.6" width="15.8846" height="10.9" fill="#A8D67C"/>
<rect x="301.807" y="54.5" width="15.8846" height="10.9" fill="#A8D67C"/>
<rect x="301.807" y="32.7" width="15.8846" height="10.9" fill="#A8D67C"/>
<rect x="301.807" y="21.8" width="15.8846" height="10.9" fill="#A8D67C"/>
<rect x="381.229" y="65.4" width="15.8846" height="10.9" fill="#A8D67C"/>
<rect x="381.229" y="54.5" width="15.8846" height="10.9" fill="#A8D67C"/>
<rect x="381.229" y="43.6" width="15.8846" height="10.9" fill="#A8D67C"/>
<rect x="381.229" y="32.7" width="15.8846" height="10.9" fill="#A8D67C"/>
<rect x="381.229" y="21.8" width="15.8846" height="10.9" fill="#A8D67C"/>
<rect x="79.4229" y="54.5" width="15.8846" height="10.9" fill="#A8D67C"/>
<rect x="63.5391" y="10.9" width="15.8846" height="10.9" fill="#A8D67C"/>
<rect x="79.4229" y="10.9" width="15.8846" height="10.9" fill="#A8D67C"/>
<rect x="95.3076" y="10.9" width="15.8846" height="10.9" fill="#A8D67C"/>
<rect x="111.192" y="10.9" width="15.8846" height="10.9" fill="#A8D67C"/>
<rect x="127.076" y="10.9" width="15.8846" height="10.9" fill="#A8D67C"/>
<rect x="142.96" y="10.9" width="15.8846" height="10.9" fill="#A8D67C"/>
<rect x="158.846" y="10.9" width="15.8846" height="10.9" fill="#A8D67C"/>
<rect x="174.729" y="10.9" width="15.8846" height="10.9" fill="#A8D67C"/>
<rect x="190.615" y="10.9" width="15.8846" height="10.9" fill="#A8D67C"/>
<rect x="206.499" y="10.9" width="15.8846" height="10.9" fill="#A8D67C"/>
<rect x="190.615" y="21.8" width="15.8846" height="10.9" fill="#A8D67C"/>
<rect x="222.383" y="10.9" width="15.8846" height="10.9" fill="#A8D67C"/>
<rect x="222.383" y="10.9" width="15.8846" height="10.9" fill="#A8D67C"/>
<rect x="238.269" y="10.9" width="15.8846" height="10.9" fill="#A8D67C"/>
<rect x="254.152" y="10.9" width="15.8846" height="10.9" fill="#A8D67C"/>
<rect x="270.038" y="10.9" width="15.8846" height="10.9" fill="#A8D67C"/>
<rect x="285.922" y="10.9" width="15.8846" height="10.9" fill="#A8D67C"/>
<rect x="301.807" y="10.9" width="15.8846" height="10.9" fill="#A8D67C"/>
<rect x="317.691" y="10.9" width="15.8846" height="10.9" fill="#A8D67C"/>
<rect x="333.575" y="10.9" width="15.8846" height="10.9" fill="#A8D67C"/>
<rect x="349.46" y="10.9" width="15.8846" height="10.9" fill="#A8D67C"/>
<rect x="365.345" y="10.9" width="15.8846" height="10.9" fill="#A8D67C"/>
<rect x="63.5391" y="76.3" width="15.8846" height="10.9" fill="#A8D67C"/>
<rect x="79.4229" y="76.3" width="15.8846" height="10.9" fill="#A8D67C"/>
<rect x="95.3076" y="76.3" width="15.8846" height="10.9" fill="#A8D67C"/>
<rect x="111.192" y="76.3" width="15.8846" height="10.9" fill="#A8D67C"/>
<rect x="127.076" y="76.3" width="15.8846" height="10.9" fill="#A8D67C"/>
<rect x="142.96" y="76.3" width="15.8846" height="10.9" fill="#A8D67C"/>
<rect x="158.846" y="76.3" width="15.8846" height="10.9" fill="#A8D67C"/>
<rect x="174.729" y="76.3" width="15.8846" height="10.9" fill="#A8D67C"/>
<rect x="190.615" y="76.3" width="15.8846" height="10.9" fill="#A8D67C"/>
<rect x="206.499" y="76.3" width="15.8846" height="10.9" fill="#A8D67C"/>
<rect x="222.383" y="76.3" width="15.8846" height="10.9" fill="#A8D67C"/>
<rect x="222.383" y="76.3" width="15.8846" height="10.9" fill="#A8D67C"/>
<rect x="238.269" y="76.3" width="15.8846" height="10.9" fill="#A8D67C"/>
<rect x="254.152" y="76.3" width="15.8846" height="10.9" fill="#A8D67C"/>
<rect x="270.038" y="76.3" width="15.8846" height="10.9" fill="#A8D67C"/>
<rect x="285.922" y="76.3" width="15.8846" height="10.9" fill="#A8D67C"/>
<rect x="301.807" y="76.3" width="15.8846" height="10.9" fill="#A8D67C"/>
<rect x="317.691" y="76.3" width="15.8846" height="10.9" fill="#A8D67C"/>
<rect x="349.46" y="76.3" width="15.8846" height="10.9" fill="#A8D67C"/>
<rect x="365.345" y="76.3" width="15.8846" height="10.9" fill="#A8D67C"/>
<rect x="15.8838" y="11.6267" width="15.8846" height="10.9" fill="#3D3B52"/>
<rect y="22.5267" width="15.8846" height="10.9" fill="#3D3B52"/>
<rect y="33.4268" width="15.8846" height="10.9" fill="#3D3B52"/>
<rect y="44.3267" width="15.8846" height="10.9" fill="#3D3B52"/>
<rect y="55.2267" width="15.8846" height="10.9" fill="#3D3B52"/>
<rect y="65.4" width="15.8846" height="10.9" fill="#3D3B52"/>
<rect x="15.8838" y="76.3" width="15.8846" height="10.9" fill="#3D3B52"/>
<rect x="31.7695" y="87.2" width="15.8846" height="10.9" fill="#3D3B52"/>
<rect x="47.6533" y="98.1" width="15.8846" height="10.9" fill="#3D3B52"/>
<rect x="31.7695" y="98.1" width="15.8846" height="10.9" fill="#3D3B52"/>
<rect x="15.8838" y="87.2" width="15.8846" height="10.9" fill="#3D3B52"/>
<rect y="76.3" width="15.8846" height="10.9" fill="#3D3B52"/>
<rect x="63.5391" y="98.1" width="15.8846" height="10.9" fill="#3D3B52"/>
<rect x="79.4229" y="98.1" width="15.8846" height="10.9" fill="#3D3B52"/>
<rect x="95.3076" y="98.1" width="15.8846" height="10.9" fill="#3D3B52"/>
<rect x="111.192" y="98.1" width="15.8846" height="10.9" fill="#3D3B52"/>
<rect x="127.076" y="98.1" width="15.8846" height="10.9" fill="#3D3B52"/>
<rect x="142.96" y="98.1" width="15.8846" height="10.9" fill="#3D3B52"/>
<rect x="158.846" y="98.1" width="15.8846" height="10.9" fill="#3D3B52"/>
<rect x="174.729" y="98.1" width="15.8846" height="10.9" fill="#3D3B52"/>
<rect x="190.615" y="98.1" width="15.8846" height="10.9" fill="#3D3B52"/>
<rect x="206.499" y="98.1" width="15.8846" height="10.9" fill="#3D3B52"/>
<rect x="222.383" y="98.1" width="15.8846" height="10.9" fill="#3D3B52"/>
<rect x="238.269" y="98.1" width="15.8846" height="10.9" fill="#3D3B52"/>
<rect x="254.152" y="98.1" width="15.8846" height="10.9" fill="#3D3B52"/>
<rect x="270.038" y="98.1" width="15.8846" height="10.9" fill="#3D3B52"/>
<rect x="285.922" y="98.1" width="15.8846" height="10.9" fill="#3D3B52"/>
<rect x="301.807" y="98.1" width="15.8846" height="10.9" fill="#3D3B52"/>
<rect x="317.691" y="98.1" width="15.8846" height="10.9" fill="#3D3B52"/>
<rect x="349.46" y="98.1" width="15.8846" height="10.9" fill="#3D3B52"/>
<rect x="333.575" y="98.1" width="15.8846" height="10.9" fill="#3D3B52"/>
<rect x="365.345" y="98.1" width="15.8846" height="10.9" fill="#3D3B52"/>
<rect x="381.229" y="87.2" width="15.8846" height="10.9" fill="#3D3B52"/>
<rect x="397.114" y="76.3" width="15.8846" height="10.9" fill="#3D3B52"/>
<rect x="31.7695" y="0.726685" width="15.8846" height="10.9" fill="#3D3B52"/>
<rect x="190.615" y="65.4" width="15.8846" height="10.9" fill="#A8D67C"/>
<rect x="190.615" y="21.8" width="15.8846" height="10.9" fill="#A8D67C"/>
</svg>
