<svg version="1.0" preserveAspectRatio="xMidYMid meet" viewBox="0 231.659997998 1441.6197975253092 157.139998642" zoomAndPan="magnify" xmlns:xlink="http://www.w3.org/1999/xlink" xmlns="http://www.w3.org/2000/svg" style="max-height: 500px" width="1441.6197975253092" height="157.139998642"><defs><clipPath id="67be2f2394"><path clip-rule="nonzero" d="M 0 234.773438 L 1440 234.773438 L 1440 387.773438 L 0 387.773438 Z M 0 234.773438"/></clipPath><clipPath id="e8520011e8"><path clip-rule="nonzero" d="M 0 234.773438 L 1419 234.773438 L 1419 387.773438 L 0 387.773438 Z M 0 234.773438"/></clipPath><clipPath id="35e3ee6db2"><path clip-rule="nonzero" d="M 18 234.773438 L 1440 234.773438 L 1440 387.773438 L 18 387.773438 Z M 18 234.773438"/></clipPath></defs><g clip-path="url(#67be2f2394)"><path fill-rule="nonzero" fill-opacity="1" d="M -32.011719 148.0625 L 1468.273438 148.0625 L 1468.273438 472.8125 L -32.011719 472.8125 Z M -32.011719 148.0625" fill="#c0c0c0"/><path fill-rule="nonzero" fill-opacity="1" d="M 1443.46875 148.0625 L -32.011719 148.0625 L -32.011719 472.8125 L 1467.871094 472.8125 L 1467.871094 148.0625 Z M 1443.46875 448.015625 L -6.804688 448.015625 L -6.804688 173.257812 L 1443.46875 173.257812 Z M 1443.46875 448.015625" fill="#000000"/></g><g clip-path="url(#e8520011e8)"><path fill-rule="nonzero" fill-opacity="1" d="M 1418.261719 172.855469 L -7.207031 172.855469 L -7.207031 448.015625 L 18 448.015625 L 18 198.054688 L 1418.261719 198.054688 Z M 1418.261719 172.855469" fill="#ffffff"/></g><g clip-path="url(#35e3ee6db2)"><path fill-rule="nonzero" fill-opacity="0.3" d="M 18 448.015625 L 1443.46875 448.015625 L 1443.46875 172.855469 L 1418.261719 172.855469 L 1418.261719 423.21875 L 18 423.21875 Z M 18 448.015625" fill="#000000"/></g></svg>