<svg version="1.0" preserveAspectRatio="xMidYMid meet" viewBox="0 272.699457643338 1438.3802024746908 301.319997396" zoomAndPan="magnify" xmlns:xlink="http://www.w3.org/1999/xlink" xmlns="http://www.w3.org/2000/svg" style="max-height: 500px" width="1438.3802024746908" height="301.319997396"><defs><clipPath id="59347573cf"><path clip-rule="nonzero" d="M 0 268.488281 L 1440 268.488281 L 1440 579.738281 L 0 579.738281 Z M 0 268.488281"/></clipPath></defs><g clip-path="url(#59347573cf)"><path fill-rule="nonzero" fill-opacity="1" d="M 0.585938 268.488281 L 1439.414062 268.488281 L 1439.414062 579.738281 L 0.585938 579.738281 Z M 0.585938 268.488281" fill="#c0c0c0"/><path fill-rule="nonzero" fill-opacity="1" d="M 1415.625 268.488281 L 0.585938 268.488281 L 0.585938 579.738281 L 1439.03125 579.738281 L 1439.03125 268.488281 Z M 1415.625 555.972656 L 24.757812 555.972656 L 24.757812 292.636719 L 1415.625 292.636719 Z M 1415.625 555.972656" fill="#000000"/></g><path fill-rule="nonzero" fill-opacity="1" d="M 1391.453125 292.253906 L 24.375 292.253906 L 24.375 555.972656 L 48.546875 555.972656 L 48.546875 316.402344 L 1391.453125 316.402344 Z M 1391.453125 292.253906" fill="#ffffff"/><path fill-rule="nonzero" fill-opacity="0.3" d="M 48.546875 555.972656 L 1415.625 555.972656 L 1415.625 292.253906 L 1391.453125 292.253906 L 1391.453125 532.207031 L 48.546875 532.207031 Z M 48.546875 555.972656" fill="#000000"/></svg>